PathFileType	4	(X/Y/Z)	C:\Users\Basilio\Documents\Thesis Gigler\squatting_fais\c3dfiles\058\SJ_pre2\markers_experimental.trc
DataRate	CameraRate	NumFrames	NumMarkers	Units	OrigDataRate	OrigDataStartFrame	OrigNumFrames
200.000000	200.000000	4	61	mm	200.000000	159	1272
Frame#	Time	FHD			LBHD			RBHD			C7			T10			CLAV			LSHO			LUUPA			LMUPA			LDUPA			LLEP			LMEP			LRAD			LUL			LRFIN			RSHO			RUPA1			RMUPA			RDUPA			RLEP			RMEP			RRAD			RUL			RUFIN			LASI			RASI			USACR			LSACR			RSACR			LTHI1			LTHI2			LTHI3			LTHI4			LLFC			LMFC			LTIB1			LTIB2			LTIB3			LTIB4			LLMAL			LMMAL			LHEE			LMT1			LMT2			LMT5			RTHI			RTHI2			RTHI3			RTHI4			RLFC			RMFC			RTIB1			RTIB2			RTIB3			RTIB4			RLMAL			RMMAL			RHEE			RMT1			RMT2			RMT5			
		X1	Y1	Z1	X2	Y2	Z2	X3	Y3	Z3	X4	Y4	Z4	X5	Y5	Z5	X6	Y6	Z6	X7	Y7	Z7	X8	Y8	Z8	X9	Y9	Z9	X10	Y10	Z10	X11	Y11	Z11	X12	Y12	Z12	X13	Y13	Z13	X14	Y14	Z14	X15	Y15	Z15	X16	Y16	Z16	X17	Y17	Z17	X18	Y18	Z18	X19	Y19	Z19	X20	Y20	Z20	X21	Y21	Z21	X22	Y22	Z22	X23	Y23	Z23	X24	Y24	Z24	X25	Y25	Z25	X26	Y26	Z26	X27	Y27	Z27	X28	Y28	Z28	X29	Y29	Z29	X30	Y30	Z30	X31	Y31	Z31	X32	Y32	Z32	X33	Y33	Z33	X34	Y34	Z34	X35	Y35	Z35	X36	Y36	Z36	X37	Y37	Z37	X38	Y38	Z38	X39	Y39	Z39	X40	Y40	Z40	X41	Y41	Z41	X42	Y42	Z42	X43	Y43	Z43	X44	Y44	Z44	X45	Y45	Z45	X46	Y46	Z46	X47	Y47	Z47	X48	Y48	Z48	X49	Y49	Z49	X50	Y50	Z50	X51	Y51	Z51	X52	Y52	Z52	X53	Y53	Z53	X54	Y54	Z54	X55	Y55	Z55	X56	Y56	Z56	X57	Y57	Z57	X58	Y58	Z58	X59	Y59	Z59	X60	Y60	Z60	X61	Y61	Z61	

160	0.795	-170.0477294921875	1781.691284179688	-824.5253906250002	-329.5054931640626	1705.055297851563	-863.4036865234377	-189.9693908691407	1786.6875	-966.216247558594	-345.4689636230469	1576.081909179688	-899.4368896484377	-389.6637268066407	1267.3798828125	-886.6126708984377	-191.9912719726563	1513.686889648438	-879.5227661132815	-187.8233489990235	1566.354736328125	-1051.93017578125	-316.8973693847657	1462.198852539063	-1223.641845703125	-289.4344177246094	1419.315551757813	-1229.89208984375	-338.7366333007813	1408.16162109375	-1262.841552734375	-373.5940856933594	1335.338500976563	-1296.270874023438	-435.7214660644532	1338.4267578125	-1251.306030273438	-362.7114257812501	1156.7666015625	-1085.322509765625	-339.5664367675782	1098.250854492188	-1136.888793945313	-289.9059753417969	1161.14892578125	-1070.238403320313	-223.9656372070313	1575.14306640625	-705.7848510742189	-372.2764587402344	1466.356201171875	-557.3167724609376	-345.3696899414063	1424.05615234375	-552.1137084960939	-393.2124938964845	1409.815185546875	-519.9943237304689	-430.2025451660157	1354.649169921875	-490.8258666992189	-488.8806762695314	1335.72216796875	-556.4338989257814	-339.5608215332032	1170.733276367188	-666.7243041992189	-318.3141784667969	1124.918090820313	-604.0825195312501	-266.6008911132813	1149.076904296875	-693.5793457031251	-232.2761688232422	1044.595336914063	-999.7291259765627	-229.1524658203126	1049.02880859375	-763.4130859375001	-411.528533935547	1147.121826171875	-872.9988403320315	-423.1812133789064	1116.179565429688	-900.0123291015627	-420.7727050781251	1116.440795898438	-843.0158691406252	-317.0964965820313	776.6425781250002	-1101.9326171875	-293.4537048339844	695.1512451171876	-1107.29345703125	-246.7869720458985	692.6189575195314	-1088.538452148438	-325.2001037597657	644.4332885742189	-1099.53662109375	-325.3551025390626	544.6492309570314	-1098.405883789063	-284.7080383300782	521.7769775390626	-982.618347167969	-268.0373535156251	407.7429809570314	-1089.142333984375	-329.1402587890626	380.4447021484376	-1141.584228515625	-287.3073425292969	368.5621948242188	-1125.595581054688	-286.3889465332032	283.6252136230469	-1112.848510742188	-352.9716186523438	90.45494842529298	-1144.574829101563	-316.5039672851563	96.52212524414065	-1057.237060546875	-407.0820312500001	49.73707199096681	-1090.881103515625	-181.1466827392578	62.98511886596681	-1106.699584960938	-185.5860443115235	62.9013137817383	-1154.217529296875	-240.1041412353516	37.42245101928712	-1201.72119140625	-356.7329406738282	857.616149902344	-673.5925903320314	-321.4147949218751	802.6001586914065	-662.0720825195314	-288.0062255859376	802.1418457031252	-664.4931640625001	-350.7459106445313	723.2882690429689	-673.4813232421876	-349.9573669433594	542.4652709960939	-674.6376953125001	-294.3864135742188	513.6358032226564	-795.5361328125002	-283.1766357421876	327.5758056640626	-718.0118408203126	-331.1437683105469	259.5957336425782	-650.1152954101564	-291.0660400390626	250.5057373046876	-673.3287353515626	-290.4399719238282	200.9404296875001	-701.5555419921876	-352.2407836914063	93.61187744140626	-657.0132446289064	-304.5180969238282	107.2177886962891	-737.4833374023439	-398.4519653320314	48.41712951660158	-727.1082763671876	-185.9462432861328	58.31934738159181	-675.5875854492189	-197.9090728759766	63.01613235473634	-625.4773559570314	-252.3781738281251	28.30792617797852	-584.9365844726564	
161	0.8	-169.3018646240235	1781.473022460938	-824.490905761719	-328.3873901367188	1704.4619140625	-863.4126586914065	-188.759750366211	1786.43115234375	-966.2189941406252	-344.3016662597657	1576.2890625	-899.5435791015627	-389.6322631835939	1267.745483398438	-886.6149902343752	-190.8499450683594	1513.38623046875	-879.5825805664065	-186.5743408203125	1565.896362304688	-1052.046508789063	-316.2043151855469	1462.164306640625	-1223.674194335938	-288.7419433593751	1419.146606445313	-1230.0693359375	-338.3135681152344	1408.16162109375	-1262.826049804688	-373.1473999023438	1335.552001953125	-1296.416381835938	-435.240692138672	1338.825317382813	-1251.382080078125	-362.8985290527344	1156.920654296875	-1085.332641601563	-339.9273376464844	1098.299072265625	-1136.886352539063	-290.2277221679688	1161.092895507813	-1070.254638671875	-223.0750274658204	1574.675903320313	-706.0355224609376	-371.2659606933594	1466.430908203125	-557.3000488281251	-344.6010742187501	1424.271728515625	-552.0184936523439	-392.1957092285157	1410.189697265625	-520.0577392578126	-429.620330810547	1354.976318359375	-490.737030029297	-488.1616516113282	1336.103515625	-556.2919311523439	-339.6624755859376	1170.82666015625	-666.7474975585939	-318.3372497558594	1124.940307617188	-604.0919189453126	-266.7815246582032	1148.928100585938	-693.7058715820314	-232.8011016845704	1044.398193359375	-999.7250976562502	-229.7886657714844	1048.955078125	-763.5487670898439	-412.022430419922	1147.635009765625	-873.0115966796877	-423.6347656250001	1116.6796875	-900.0049438476565	-421.3128051757814	1116.869140625	-842.9484863281252	-317.3313293457032	776.485046386719	-1102.043212890625	-293.7281494140626	695.0880737304689	-1107.406616210938	-246.8462371826172	692.6075439453126	-1088.651489257813	-325.1524047851563	644.2993774414064	-1099.542602539063	-325.0347290039063	544.5657348632814	-1098.462524414063	-284.2482604980469	521.8481445312501	-982.656677246094	-267.7998352050782	407.624725341797	-1089.153198242188	-328.8237915039063	380.3586120605469	-1141.650756835938	-286.9945983886719	368.5833129882813	-1125.6142578125	-286.2940979003907	283.2554016113282	-1112.867431640625	-352.8993530273438	90.43286895751955	-1144.580078125	-316.4682617187501	96.49893188476565	-1057.229736328125	-407.2412414550782	49.81876373291017	-1090.829956054688	-181.1148681640625	62.98348617553712	-1106.735473632813	-185.6333770751953	62.75548934936525	-1154.2099609375	-240.1316528320313	37.38618469238282	-1201.738159179688	-356.9692077636719	857.332702636719	-673.5757446289064	-321.7590332031251	802.2238769531252	-662.0357055664064	-288.4279785156251	801.8505859375002	-664.4340209960939	-350.7413330078126	723.0939941406251	-673.4514770507814	-349.7100219726563	542.3550415039064	-674.4794921875001	-293.9898986816407	513.6464233398439	-795.4146728515627	-282.8796997070313	327.6507263183594	-717.9193115234376	-330.9095764160157	259.4376525878907	-650.0932617187501	-290.8793029785157	250.4342498779297	-673.3442382812501	-290.3922424316407	200.8851318359376	-701.5084228515626	-352.2512512207032	93.60378265380861	-657.0635986328126	-304.4862670898438	107.2052764892578	-737.4992065429689	-398.4187011718751	48.41667556762697	-727.1374511718751	-185.9278106689453	58.30514144897462	-675.5690917968751	-197.9337005615235	63.02415084838869	-625.4799194335939	-252.3643188476563	28.33978652954102	-584.9358520507814	
162	0.805	-167.8626403808594	1781.357177734375	-824.6658325195315	-326.9172363281251	1704.4267578125	-863.488708496094	-187.505615234375	1786.343994140625	-966.3858032226565	-343.3080749511719	1576.261352539063	-899.5862426757815	-389.6284179687501	1268.126342773438	-886.6614990234377	-190.0660705566407	1513.15283203125	-879.5749511718752	-185.8790130615235	1565.316650390625	-1052.094360351563	-315.3664245605469	1462.230346679688	-1223.630004882813	-288.1978149414063	1419.176025390625	-1230.125732421875	-337.9049072265626	1408.14990234375	-1262.917236328125	-372.8089904785157	1335.749633789063	-1296.501098632813	-434.8604736328126	1339.1640625	-1251.396118164063	-363.1298217773438	1157.044799804688	-1085.346313476563	-340.2972106933594	1098.419311523438	-1136.889770507813	-290.4241027832032	1161.08642578125	-1070.224243164063	-221.8188781738282	1574.443237304688	-705.9694213867189	-370.0592956542969	1466.7958984375	-557.2601928710939	-343.6239013671876	1424.313720703125	-552.1639404296876	-391.5884399414064	1410.397827148438	-519.9678955078126	-428.9736328125001	1355.319458007813	-490.688690185547	-487.4837951660157	1336.8525390625	-556.2357177734376	-339.6522216796876	1170.799194335938	-666.7130126953126	-318.3941345214844	1124.904663085938	-604.1213989257814	-267.1490478515626	1148.638916015625	-693.8473510742189	-233.4901275634766	1044.200561523438	-999.6654052734377	-230.5395202636719	1048.56494140625	-763.6546630859376	-412.5479125976564	1148.051635742188	-872.9765625000002	-424.0972900390626	1116.781982421875	-899.9617919921877	-421.9777832031251	1117.139038085938	-842.9309692382815	-317.7360534667969	776.4031372070315	-1102.11962890625	-293.8586425781251	694.9944458007814	-1107.537841796875	-246.8701171875001	692.6815185546876	-1088.788696289063	-325.1721801757813	644.0952148437501	-1099.553466796875	-324.7250671386719	544.4302368164064	-1098.494750976563	-283.7106018066407	521.7672729492189	-982.729187011719	-267.6840209960938	407.5124511718751	-1089.134033203125	-328.8685607910157	380.2971191406251	-1142.528198242188	-286.5877685546876	368.5796203613282	-1125.65380859375	-285.9102172851563	283.4358215332032	-1112.930419921875	-352.8899230957032	90.44058227539064	-1144.511962890625	-316.4674377441407	96.50248718261722	-1057.223266601563	-407.2620849609376	49.82546234130861	-1090.830688476563	-181.1570892333985	62.97186279296876	-1106.773559570313	-185.6882476806641	62.85359191894533	-1154.20166015625	-240.1214141845704	37.42556381225587	-1201.717407226563	-357.9039001464844	857.1208496093752	-673.4144287109376	-322.2174377441407	801.9912109375002	-661.9191894531251	-288.6848754882813	801.7681274414065	-664.4232177734376	-350.8572082519532	722.8555908203126	-673.3713378906251	-349.0235900878907	542.3093872070314	-674.3999023437501	-293.6371765136719	513.5654907226564	-795.2872314453127	-282.2875671386719	327.8788757324219	-717.8884277343751	-330.5723266601563	259.3649291992188	-650.0780639648439	-290.7278137207032	250.3908081054688	-673.2483520507814	-290.6454467773438	200.9266510009766	-701.8229370117189	-352.2096557617188	93.61946105957033	-657.1030273437501	-304.3516845703126	107.1379318237305	-737.5203857421876	-398.4155883789064	48.40346908569337	-727.1418457031251	-185.9288787841797	58.31702041625978	-675.5587768554689	-197.8977050781251	63.01858139038087	-625.4752807617189	-252.3951110839844	28.33795738220216	-584.9542236328126	
163	0.8100000000000001	-166.867416381836	1781.136596679688	-824.7058105468752	-325.8983459472657	1703.973999023438	-863.476989746094	-186.4400024414063	1786.010131835938	-966.5753173828127	-342.2369995117188	1576.035034179688	-899.6000976562502	-389.6603088378907	1268.470947265625	-886.664978027344	-189.0545349121094	1512.832641601563	-879.563659667969	-184.3726501464844	1565.052856445313	-1052.044555664063	-314.6358032226563	1462.2021484375	-1223.694213867188	-287.5820617675782	1419.037231445313	-1230.121215820313	-337.3093872070313	1408.293579101563	-1263.033203125	-373.0336608886719	1335.473022460938	-1296.137084960938	-434.3426513671876	1339.576904296875	-1251.464721679688	-363.3825683593751	1157.199462890625	-1085.405029296875	-340.7622375488282	1098.415161132813	-1136.843872070313	-290.6317138671876	1161.0791015625	-1070.164428710938	-220.1627655029297	1574.307861328125	-705.9387207031251	-369.0131530761719	1466.8857421875	-557.2451171875001	-342.9184570312501	1424.34228515625	-552.1756591796876	-390.6750793457032	1410.534545898438	-519.9916992187501	-428.1492614746095	1355.814819335938	-490.4129028320314	-486.979217529297	1337.305297851563	-556.0551147460939	-339.8274230957032	1170.842529296875	-666.6944580078126	-318.4558105468751	1124.88427734375	-604.1026611328126	-267.4542541503907	1148.497924804688	-694.0544433593751	-234.3157806396485	1044.006591796875	-999.6041259765627	-231.7905883789063	1048.014404296875	-763.6552734375001	-413.0090637207032	1148.533935546875	-873.046325683594	-424.6475524902345	1117.100708007813	-899.8828735351565	-422.6071166992189	1117.48486328125	-842.9648437500002	-318.1026000976563	776.2650146484377	-1102.166015625	-293.9843444824219	694.8873291015626	-1107.675537109375	-247.0311126708985	692.6252441406251	-1088.90625	-325.0927734375001	643.9288330078126	-1099.628662109375	-324.4238281250001	544.3476562500001	-1098.609619140625	-283.2980346679688	521.6858520507814	-982.7254638671877	-267.5533142089844	407.4300537109376	-1089.153564453125	-328.0278930664063	380.1422729492188	-1141.7861328125	-286.2437133789063	368.5258178710938	-1125.669921875	-285.8460693359376	283.3771057128907	-1112.858154296875	-352.8954772949219	90.44612884521486	-1144.579833984375	-316.4877929687501	96.45911407470706	-1057.170654296875	-407.2593688964845	49.84687423706056	-1090.807983398438	-181.1203918457032	62.9899139404297	-1106.732666015625	-185.6194915771485	62.88336563110353	-1154.226318359375	-240.1089935302735	37.39669418334962	-1201.775024414063	-358.2751464843751	856.7413330078127	-673.3853149414064	-322.5272827148438	801.8969726562502	-661.8635253906251	-288.8967895507813	801.7453613281252	-664.3850708007814	-350.9136962890626	722.6297607421876	-673.3316650390626	-348.3802185058594	542.0351562500001	-674.3265991210939	-293.1540222167969	513.5620117187501	-795.1359863281252	-281.8238220214844	327.6672058105469	-717.7302856445314	-330.3976440429688	259.3625183105469	-649.9906616210939	-290.1556701660157	250.2667541503907	-673.2380981445314	-290.8492431640626	200.8482666015626	-701.9879760742189	-352.1783142089844	93.61201477050783	-657.0845336914064	-304.3529968261719	107.117919921875	-737.5733642578126	-398.4080810546876	48.38832473754884	-727.1564941406251	-185.9197692871094	58.28113937377931	-675.5703735351564	-197.9284973144532	63.03499221801759	-625.4773559570314	-252.3824310302735	28.35142898559571	-584.9647827148439	
